<svg width="28" height="28" viewBox="0 0 28 28" fill="none" xmlns="http://www.w3.org/2000/svg">
<circle cx="14" cy="14" r="14" fill="white"/>
<path fill-rule="evenodd" clip-rule="evenodd" d="M14.2053 7.33642C15.0073 6.61341 16.0815 6.21334 17.1964 6.22238C18.3114 6.23142 19.378 6.64886 20.1664 7.38477C20.9548 8.12069 21.4021 9.11621 21.4117 10.1569C21.4214 11.1976 20.9928 12.2002 20.2182 12.9488L20.2096 12.957L18.0835 14.9415C17.6524 15.3441 17.1335 15.6553 16.5622 15.8543C15.9909 16.0532 15.3804 16.1351 14.7722 16.0944C14.164 16.0538 13.5723 15.8915 13.0371 15.6186C12.502 15.3457 12.036 14.9686 11.6708 14.5129C11.4363 14.2203 11.5004 13.8057 11.8138 13.5869C12.1273 13.3681 12.5714 13.4278 12.8059 13.7204C13.0494 14.0242 13.36 14.2756 13.7168 14.4576C14.0735 14.6395 14.468 14.7477 14.8735 14.7748C15.279 14.8019 15.6859 14.7473 16.0668 14.6146C16.4477 14.482 16.7936 14.2745 17.081 14.0062L19.2027 12.0258C19.7165 11.5271 20.0008 10.8604 19.9943 10.1684C19.9879 9.4746 19.6897 8.81093 19.1641 8.32031C18.6385 7.8297 17.9274 7.55141 17.1841 7.54539C16.4424 7.53937 15.7278 7.80491 15.1935 8.28494L13.9783 9.4126C13.7007 9.67019 13.252 9.66897 12.976 9.40987C12.7 9.15078 12.7013 8.73192 12.9789 8.47433L14.198 7.34312L14.2053 7.33642Z" fill="#111111"/>
<path fill-rule="evenodd" clip-rule="evenodd" d="M11.4381 11.4137C12.0094 11.2148 12.6198 11.1329 13.2281 11.1735C13.8363 11.2142 14.428 11.3765 14.9631 11.6494C15.4983 11.9223 15.9642 12.2994 16.3295 12.7551C16.5639 13.0477 16.4999 13.4623 16.1865 13.6811C15.873 13.8999 15.4289 13.8402 15.1944 13.5476C14.9509 13.2438 14.6403 12.9924 14.2835 12.8104C13.9268 12.6285 13.5323 12.5203 13.1268 12.4932C12.7213 12.4661 12.3144 12.5207 11.9335 12.6533C11.5526 12.786 11.2067 12.9935 10.9193 13.2618L8.79762 15.2422C8.28376 15.7409 7.99952 16.4076 8.00596 17.0996C8.01242 17.7934 8.31057 18.4571 8.83619 18.9477C9.36181 19.4383 10.0729 19.7166 10.8162 19.7226C11.5575 19.7286 12.2718 19.4633 12.8061 18.9837L14.0134 17.8567C14.2902 17.5984 14.7389 17.5984 15.0157 17.8567C15.2925 18.1151 15.2925 18.5339 15.0157 18.7923L13.8038 19.9235L13.795 19.9316C12.993 20.6546 11.9188 21.0547 10.8038 21.0456C9.68888 21.0366 8.62232 20.6191 7.83388 19.8832C7.04545 19.1473 6.59823 18.1518 6.58854 17.1111C6.57885 16.0704 7.00747 15.0678 7.78208 14.3192L7.79072 14.311L9.91684 12.3265C9.91687 12.3264 9.91681 12.3265 9.91684 12.3265C10.3479 11.924 10.8668 11.6126 11.4381 11.4137Z" fill="#111111"/>
</svg>
